<?xml version="1.0" encoding="utf-8"?>
<!-- Generator: Adobe Illustrator 16.0.3, SVG Export Plug-In . SVG Version: 6.00 Build 0)  -->
<!DOCTYPE svg PUBLIC "-//W3C//DTD SVG 1.1//EN" "http://www.w3.org/Graphics/SVG/1.1/DTD/svg11.dtd">
<svg version="1.1" xmlns="http://www.w3.org/2000/svg" xmlns:xlink="http://www.w3.org/1999/xlink" x="0px" y="0px" width="80px"
	 height="80px" viewBox="0 0 80 80" enable-background="new 0 0 80 80" xml:space="preserve">
<g id="Layer_1" display="none">
	<g display="inline">
		<path d="M4.117,38.051L38.968,3.546v5.826c0,0.658-0.093,1.225-0.279,1.702c-0.186,0.48-0.512,0.957-0.976,1.434L12.017,37.603
			c-1.023,1.018-2.138,1.794-3.346,2.332c1.301,0.537,2.417,1.286,3.346,2.242l25.696,25.182c0.464,0.479,0.79,0.957,0.976,1.434
			c0.187,0.48,0.279,1.045,0.279,1.703v5.826L4.117,41.725V38.051z"/>
	</g>
	<g display="inline">
		<path d="M41.602,38.666L75.522,5.325v0.987c0,0.716-0.295,1.345-0.883,1.881L44.762,37.409c-0.371,0.36-0.736,0.705-1.092,1.032
			c-0.356,0.329-0.72,0.584-1.092,0.762c0.372,0.237,0.735,0.508,1.092,0.806c0.355,0.3,0.721,0.625,1.092,0.984l29.878,29.22
			c0.588,0.594,0.883,1.225,0.883,1.883v0.984L41.602,39.741V38.666z"/>
	</g>
</g>
<g id="Layer_2">
	
		<polyline fill="none" stroke="#000000" stroke-width="2.5" stroke-linecap="round" stroke-linejoin="round" stroke-miterlimit="10" points="
		11.991,37.507 40,9.5 68.009,37.507 	"/>
	<polygon stroke="#000000" stroke-linejoin="round" stroke-miterlimit="10" points="58.5,28.5 58.5,14.5 49.5,14.5 49.5,19.5 
		39.75,10 15.5,34 15.5,71.5 31.5,71.5 31.5,47.5 46.5,47.5 46.5,71.5 63.5,71.5 63.5,34 	"/>
</g>
</svg>
